<svg width="160" height="40" viewBox="0 0 160 40" fill="none" xmlns="http://www.w3.org/2000/svg">
<rect width="160" height="40" rx="10" fill="#E97F03"/>
<path d="M32.3281 23.5469H25.1797L23.5742 28H21.2539L27.7695 10.9375H29.7383L36.2656 28H33.957L32.3281 23.5469ZM25.8594 21.6953H31.6602L28.7539 13.7148L25.8594 21.6953ZM37.6953 21.5547C37.6953 19.6094 38.1562 18.0469 39.0781 16.8672C40 15.6797 41.207 15.0859 42.6992 15.0859C44.1836 15.0859 45.3594 15.5938 46.2266 16.6094V10H48.3945V28H46.4023L46.2969 26.6406C45.4297 27.7031 44.2227 28.2344 42.6758 28.2344C41.207 28.2344 40.0078 27.6328 39.0781 26.4297C38.1562 25.2266 37.6953 23.6562 37.6953 21.7188V21.5547ZM39.8633 21.8008C39.8633 23.2383 40.1602 24.3633 40.7539 25.1758C41.3477 25.9883 42.168 26.3945 43.2148 26.3945C44.5898 26.3945 45.5938 25.7773 46.2266 24.543V18.7188C45.5781 17.5234 44.582 16.9258 43.2383 16.9258C42.1758 16.9258 41.3477 17.3359 40.7539 18.1562C40.1602 18.9766 39.8633 20.1914 39.8633 21.8008ZM51.2422 21.5547C51.2422 19.6094 51.7031 18.0469 52.625 16.8672C53.5469 15.6797 54.7539 15.0859 56.2461 15.0859C57.7305 15.0859 58.9062 15.5938 59.7734 16.6094V10H61.9414V28H59.9492L59.8438 26.6406C58.9766 27.7031 57.7695 28.2344 56.2227 28.2344C54.7539 28.2344 53.5547 27.6328 52.625 26.4297C51.7031 25.2266 51.2422 23.6562 51.2422 21.7188V21.5547ZM53.4102 21.8008C53.4102 23.2383 53.707 24.3633 54.3008 25.1758C54.8945 25.9883 55.7148 26.3945 56.7617 26.3945C58.1367 26.3945 59.1406 25.7773 59.7734 24.543V18.7188C59.125 17.5234 58.1289 16.9258 56.7852 16.9258C55.7227 16.9258 54.8945 17.3359 54.3008 18.1562C53.707 18.9766 53.4102 20.1914 53.4102 21.8008ZM74.2109 12.25V15.3203H76.5781V16.9961H74.2109V24.8594C74.2109 25.3672 74.3164 25.75 74.5273 26.0078C74.7383 26.2578 75.0977 26.3828 75.6055 26.3828C75.8555 26.3828 76.1992 26.3359 76.6367 26.2422V28C76.0664 28.1562 75.5117 28.2344 74.9727 28.2344C74.0039 28.2344 73.2734 27.9414 72.7812 27.3555C72.2891 26.7695 72.043 25.9375 72.043 24.8594V16.9961H69.7344V15.3203H72.043V12.25H74.2109ZM78.3125 21.543C78.3125 20.3008 78.5547 19.1836 79.0391 18.1914C79.5312 17.1992 80.2109 16.4336 81.0781 15.8945C81.9531 15.3555 82.9492 15.0859 84.0664 15.0859C85.793 15.0859 87.1875 15.6836 88.25 16.8789C89.3203 18.0742 89.8555 19.6641 89.8555 21.6484V21.8008C89.8555 23.0352 89.6172 24.1445 89.1406 25.1289C88.6719 26.1055 87.9961 26.8672 87.1133 27.4141C86.2383 27.9609 85.2305 28.2344 84.0898 28.2344C82.3711 28.2344 80.9766 27.6367 79.9062 26.4414C78.8438 25.2461 78.3125 23.6641 78.3125 21.6953V21.543ZM80.4922 21.8008C80.4922 23.207 80.8164 24.3359 81.4648 25.1875C82.1211 26.0391 82.9961 26.4648 84.0898 26.4648C85.1914 26.4648 86.0664 26.0352 86.7148 25.1758C87.3633 24.3086 87.6875 23.0977 87.6875 21.543C87.6875 20.1523 87.3555 19.0273 86.6914 18.168C86.0352 17.3008 85.1602 16.8672 84.0664 16.8672C82.9961 16.8672 82.1328 17.293 81.4766 18.1445C80.8203 18.9961 80.4922 20.2148 80.4922 21.8008ZM103.613 26.4648C104.387 26.4648 105.062 26.2305 105.641 25.7617C106.219 25.293 106.539 24.707 106.602 24.0039H108.652C108.613 24.7305 108.363 25.4219 107.902 26.0781C107.441 26.7344 106.824 27.2578 106.051 27.6484C105.285 28.0391 104.473 28.2344 103.613 28.2344C101.887 28.2344 100.512 27.6602 99.4883 26.5117C98.4727 25.3555 97.9648 23.7773 97.9648 21.7773V21.4141C97.9648 20.1797 98.1914 19.082 98.6445 18.1211C99.0977 17.1602 99.7461 16.4141 100.59 15.8828C101.441 15.3516 102.445 15.0859 103.602 15.0859C105.023 15.0859 106.203 15.5117 107.141 16.3633C108.086 17.2148 108.59 18.3203 108.652 19.6797H106.602C106.539 18.8594 106.227 18.1875 105.664 17.6641C105.109 17.1328 104.422 16.8672 103.602 16.8672C102.5 16.8672 101.645 17.2656 101.035 18.0625C100.434 18.8516 100.133 19.9961 100.133 21.4961V21.9062C100.133 23.3672 100.434 24.4922 101.035 25.2812C101.637 26.0703 102.496 26.4648 103.613 26.4648ZM118.918 28C118.793 27.75 118.691 27.3047 118.613 26.6641C117.605 27.7109 116.402 28.2344 115.004 28.2344C113.754 28.2344 112.727 27.8828 111.922 27.1797C111.125 26.4688 110.727 25.5703 110.727 24.4844C110.727 23.1641 111.227 22.1406 112.227 21.4141C113.234 20.6797 114.648 20.3125 116.469 20.3125H118.578V19.3164C118.578 18.5586 118.352 17.957 117.898 17.5117C117.445 17.0586 116.777 16.832 115.895 16.832C115.121 16.832 114.473 17.0273 113.949 17.418C113.426 17.8086 113.164 18.2812 113.164 18.8359H110.984C110.984 18.2031 111.207 17.5938 111.652 17.0078C112.105 16.4141 112.715 15.9453 113.48 15.6016C114.254 15.2578 115.102 15.0859 116.023 15.0859C117.484 15.0859 118.629 15.4531 119.457 16.1875C120.285 16.9141 120.715 17.918 120.746 19.1992V25.0352C120.746 26.1992 120.895 27.125 121.191 27.8125V28H118.918ZM115.32 26.3477C116 26.3477 116.645 26.1719 117.254 25.8203C117.863 25.4688 118.305 25.0117 118.578 24.4492V21.8477H116.879C114.223 21.8477 112.895 22.625 112.895 24.1797C112.895 24.8594 113.121 25.3906 113.574 25.7734C114.027 26.1562 114.609 26.3477 115.32 26.3477ZM130.273 17.2656C129.945 17.2109 129.59 17.1836 129.207 17.1836C127.785 17.1836 126.82 17.7891 126.312 19V28H124.145V15.3203H126.254L126.289 16.7852C127 15.6523 128.008 15.0859 129.312 15.0859C129.734 15.0859 130.055 15.1406 130.273 15.25V17.2656ZM135.805 12.25V15.3203H138.172V16.9961H135.805V24.8594C135.805 25.3672 135.91 25.75 136.121 26.0078C136.332 26.2578 136.691 26.3828 137.199 26.3828C137.449 26.3828 137.793 26.3359 138.23 26.2422V28C137.66 28.1562 137.105 28.2344 136.566 28.2344C135.598 28.2344 134.867 27.9414 134.375 27.3555C133.883 26.7695 133.637 25.9375 133.637 24.8594V16.9961H131.328V15.3203H133.637V12.25H135.805Z" fill="white"/>
</svg>
