<svg width="26" height="29" viewBox="0 0 26 29" fill="none" xmlns="http://www.w3.org/2000/svg">
<g filter="url(#filter0_d)">
<path d="M16.5 14H15.71L15.43 13.73C16.41 12.59 17 11.11 17 9.5C17 5.91 14.09 3 10.5 3C6.91 3 4 5.91 4 9.5C4 13.09 6.91 16 10.5 16C12.11 16 13.59 15.41 14.73 14.43L15 14.71V15.5L20 20.49L21.49 19L16.5 14V14ZM10.5 14C8.01 14 6 11.99 6 9.5C6 7.01 8.01 5 10.5 5C12.99 5 15 7.01 15 9.5C15 11.99 12.99 14 10.5 14Z" fill="#E97F03"/>
</g>
<defs>
<filter id="filter0_d" x="-3" y="0" width="32" height="32" filterUnits="userSpaceOnUse" color-interpolation-filters="sRGB">
<feFlood flood-opacity="0" result="BackgroundImageFix"/>
<feColorMatrix in="SourceAlpha" type="matrix" values="0 0 0 0 0 0 0 0 0 0 0 0 0 0 0 0 0 0 127 0"/>
<feOffset dy="4"/>
<feGaussianBlur stdDeviation="2"/>
<feColorMatrix type="matrix" values="0 0 0 0 0 0 0 0 0 0 0 0 0 0 0 0 0 0 0.25 0"/>
<feBlend mode="normal" in2="BackgroundImageFix" result="effect1_dropShadow"/>
<feBlend mode="normal" in="SourceGraphic" in2="effect1_dropShadow" result="shape"/>
</filter>
</defs>
</svg>
